<?xml version="1.0" encoding="UTF-8" standalone="no"?>
<!DOCTYPE svg PUBLIC "-//W3C//DTD SVG 1.1//EN" "http://www.w3.org/Graphics/SVG/1.1/DTD/svg11.dtd">
<svg width="100%" height="100%" viewBox="0 0 596 842" version="1.1" xmlns="http://www.w3.org/2000/svg" xmlns:xlink="http://www.w3.org/1999/xlink" xml:space="preserve" xmlns:serif="http://www.serif.com/" style="fill-rule:evenodd;clip-rule:evenodd;stroke-linejoin:round;stroke-miterlimit:2;">
    <g id="g4" transform="matrix(2.99661,0,0,2.99661,-594.268,-840.463)">
        <path id="path6" d="M322.734,508.207L272.543,508.207L272.543,364.125C287.443,352.91 304.193,343.578 322.734,336.606L322.734,508.207Z" style="fill:rgb(17,30,73);"/>
        <path id="path8" d="M249.005,508.207L198.813,508.207L198.813,477.221C209.464,446.488 226.286,408.311 249.005,384.904L249.005,508.207Z" style="fill:rgb(17,30,73);"/>
        <path id="path10" d="M396.464,508.207L346.272,508.207L346.272,329.471C348.944,328.761 349.623,328.434 353.889,327.43C342.418,346.783 350.555,350.638 360.066,347.015C370.133,343.18 383.148,330.905 388.457,324.311C392.86,324.006 393.047,323.821 396.464,323.78L396.464,508.207Z" style="fill:rgb(17,30,73);"/>
        <path id="path12" d="M198.813,457.744C221.939,391.011 274.149,335.068 352.706,318.06C353.599,317.866 355.916,316.712 355.907,314.381C355.897,312.05 354.057,310.809 353.165,310.667C352.272,310.524 351.553,310.495 350.372,310.799C286.035,327.355 230.213,365.604 198.813,419.374L198.813,457.744Z" style="fill:rgb(228,74,36);"/>
        <path id="path14" d="M378.68,303.41C382.775,303.353 390.945,301.617 394.084,304.441C398.317,308.247 396.223,312.679 393.057,315.885C385.351,323.686 376.511,332.343 367.804,339.061C357.352,347.126 346.939,348.719 354.856,332.632C358.948,324.32 364.294,317.954 371.826,312.55C367.023,309.759 335.413,297.192 339.54,289.681C340.158,288.557 340.908,287.687 342.326,287.565C343.746,287.442 345.022,287.89 345.928,288.828C353.75,296.915 367.276,303.571 378.68,303.41Z" style="fill:rgb(228,74,36);"/>
        <path id="path16" d="M307.661,536.031C310.257,539.413 318.345,548.959 321.739,551.763C323.583,553.286 325.744,553.187 326.228,550.598C326.66,548.294 326.583,546.085 326.602,543.681C326.635,539.412 328.212,515.938 321.832,519.101C319.947,520.036 321.047,523.088 321.494,524.917C322.48,528.943 322.654,542.253 322.523,546.277C321.592,545.837 319.85,543.57 318.605,542.512C314.178,538.752 305.109,525.949 301.985,521.338C301.14,520.09 299.852,517.621 297.663,518.865C295.662,520.003 296.133,522.357 296.395,524.835C297.072,531.24 296.845,540.163 296.618,546.837C296.537,549.217 295.695,552.006 297.435,553.214C302.048,556.418 301.067,544.924 301.021,542.422C300.928,537.393 301.02,532.516 301.113,527.495L307.661,536.031Z" style="fill:rgb(17,30,73);"/>
        <path id="path18" d="M203.781,553.262C207.033,554.348 212.028,554.19 215.655,553.999C217.468,553.903 220.17,554.055 220.933,552.783C221.434,551.947 221.779,549.151 218.554,549.332C215.467,549.506 209.057,550.062 206.178,549.545C204.21,549.192 204.44,547.288 204.371,544.731C204.312,542.517 204.413,540.243 204.504,538.027C207.483,537.686 210.727,537.396 213.716,537.156C217.25,536.873 221.241,537.147 221.532,534.853C222,531.164 217.046,532.316 214.262,532.661C211.29,533.029 207.823,533.4 204.882,533.574C204.794,531.947 205.047,530.205 205.11,528.569C205.18,526.748 205.021,524.791 205.097,523.106C206.868,522.239 211.675,521.748 213.93,521.814C218.113,521.938 218.479,522.571 220.508,522.839C221.77,523.006 221.794,522.573 222.517,522.377C223.721,519.155 222.655,518.64 219.346,517.894C216.864,517.334 213.614,517.187 210.987,517.435L205.43,518.389C204.338,518.662 204.525,518.764 203.735,518.406C200.293,516.846 200.339,520.54 200.667,523.153C201.038,526.109 200.795,528.473 200.636,531.434C200.46,534.703 200.55,533.008 200.135,535.357L200.317,547.841C200.82,550.854 201.35,552.195 203.781,553.262Z" style="fill:rgb(17,30,73);"/>
        <path id="path20" d="M369.101,523.501C370.599,524.448 386.795,523.15 387.949,523.484C381.053,529.846 375.795,537.883 370.359,545.59C368.668,547.987 365.211,553.063 370.971,553.045C377.192,553.025 384.979,552.563 390.714,552.719C392.699,552.773 395.106,553.349 395.782,551.682C396.79,549.192 394.301,548.789 392.394,548.691C390.153,548.576 388.109,548.662 385.88,548.707C382.259,548.78 376.667,549.424 373.353,549.099L378.663,541.292C380.564,538.572 382.208,535.964 384.183,533.586C390.87,525.536 391.955,526.717 394.593,524.052C400.782,517.796 385.608,519.862 382.548,519.962C378.847,520.084 373.19,518.993 370.126,519.536C367.356,520.028 368.218,522.943 369.101,523.502Z" style="fill:rgb(17,30,73);"/>
        <path id="path22" d="M348.524,540.679C350.272,541.694 362.62,556.672 365.711,552.065C367.482,549.426 364.837,548.729 363.318,547.975C361.79,547.217 360.253,545.698 359.103,544.64C357.703,543.352 352.102,538.402 351.575,537.092L361.062,527.264C361.682,526.489 362.207,525.858 362.855,525.067C363.733,523.996 365.967,521.689 364.258,519.96C361.861,517.535 359.064,522.886 356.077,526.055C354.498,527.731 349.933,533.383 348.527,534.066C348.533,531.205 348.678,528.148 348.846,525.284C348.988,522.878 349.649,518.124 346.277,518.971C344.121,519.513 344.727,523.248 344.625,526.64C344.535,529.643 344.504,532.684 344.434,535.704C344.357,538.996 343.414,550.913 344.606,553.037C345.086,553.891 346.578,554.899 347.89,553.981C348.775,553.362 348.528,551.272 348.527,549.98C348.524,546.88 348.523,543.779 348.524,540.679L348.524,540.679Z" style="fill:rgb(17,30,73);"/>
        <path id="path24" d="M250.997,537.281C257.733,533.974 265.575,538.648 266.18,534.397C266.633,531.208 262.219,531.648 259.707,531.546C255.679,531.383 254.505,532.07 251.124,532.5L251.126,523.343C254.254,522.468 259.653,522.262 263,522.763C264.635,523.008 266.878,524.347 268.09,522.883C269.684,520.958 267.847,519.855 266.247,519.292C261.832,517.738 256.587,517.848 251.724,518.71C249.974,519.02 250.169,518.606 248.972,518.563C246.572,518.478 246.817,521.073 246.832,523.106C246.895,531.828 246.6,540.438 246.527,549.14C246.51,551.198 246.126,553.658 248.01,554.127C250.669,554.79 250.812,552.558 250.829,550.402C250.863,546.036 250.996,541.638 250.997,537.281L250.997,537.281Z" style="fill:rgb(17,30,73);"/>
        <path id="path26" d="M278.461,530.068C278.05,536.026 278.863,543.618 278.316,547.811C277.013,548.054 273.907,548.123 273.032,548.405C271.674,548.842 271.085,550.925 272.279,552.097C273.739,553.53 279.874,551.928 282.157,551.897C284.046,551.872 285.945,551.846 287.834,551.836C289.721,551.826 291.292,551.773 291.527,549.913C291.967,546.43 286.861,547.463 282.666,547.477C282.932,543.474 282.641,539.688 282.644,535.703C282.647,532.018 282.812,528.14 283.121,524.479C285.513,524.007 292.568,527.112 292.286,522.691C292.155,520.629 290.28,520.596 288.446,520.396C286.549,520.191 284.777,520.02 282.833,519.866C280.616,519.69 272.929,519.179 271.655,520.575C270.404,521.945 271.389,524.165 273.145,524.304C274.747,524.431 277.121,524.239 278.792,524.201C278.875,525.998 278.585,528.268 278.461,530.068Z" style="fill:rgb(17,30,73);"/>
        <path id="path28" d="M233.146,538.493C230.695,538.642 226.317,537.762 226.989,540.902C227.28,542.262 228.786,542.027 230.305,542.012C231.77,541.997 233.231,541.995 234.695,541.942C237.717,541.83 241.285,542.256 240.728,539.562C240.278,537.39 235.028,538.379 233.146,538.493Z" style="fill:rgb(228,74,36);"/>
        <path id="path30" d="M336.774,552.289C338.202,548.849 332.928,547.206 331.809,550.287C330.575,553.683 335.444,555.493 336.774,552.289Z" style="fill:rgb(17,30,73);"/>
    </g>
</svg>
