<svg width="16" height="16" viewBox="0 0 16 16" fill="none" xmlns="http://www.w3.org/2000/svg">
<path d="M14.8405 4.04062L11.962 1.16212C11.5397 0.741079 10.9678 0.504639 10.3715 0.504639C9.7752 0.504639 9.2032 0.741079 8.781 1.16212L7.1895 2.74812L8.1895 3.74812L6.25 5.68762L5.33999 4.77762C5.13106 4.56869 4.88302 4.40295 4.61003 4.28988C4.33705 4.1768 4.04447 4.1186 3.74899 4.1186C3.45351 4.1186 3.16093 4.1768 2.88794 4.28988C2.61496 4.40295 2.36692 4.56869 2.15799 4.77762L0.187988 6.74662L4.18799 10.7466L0.969988 13.9666L2.03049 15.0271L5.24999 11.8076L9.25 15.8076L11.22 13.8386C11.6412 13.4163 11.8778 12.8441 11.8778 12.2476C11.8778 11.6511 11.6412 11.0789 11.22 10.6566L10.312 9.75012L12.25 7.80862L13.25 8.80862L14.8405 7.22412C15.0495 7.01522 15.2153 6.76712 15.3284 6.49412C15.4415 6.22102 15.4998 5.92841 15.4998 5.63287C15.4998 5.33734 15.4415 5.0447 15.3284 4.77167C15.2153 4.49864 15.0495 4.25057 14.8405 4.04162V4.04062ZM13.781 6.16112L13.25 6.68862L12.25 5.68862L8.1905 9.75012L10.159 11.7186C10.2287 11.7883 10.284 11.871 10.3217 11.962C10.3594 12.053 10.3788 12.1506 10.3788 12.2491C10.3788 12.3476 10.3594 12.4452 10.3217 12.5362C10.284 12.6273 10.2287 12.71 10.159 12.7796L9.25 13.6861L2.31099 6.74662L3.21999 5.83812C3.36285 5.70177 3.55275 5.6257 3.75024 5.6257C3.94773 5.6257 4.13763 5.70177 4.28049 5.83812L6.25 7.80862L10.312 3.75012L9.312 2.75012L9.84 2.22412C9.9096 2.15443 9.9923 2.09914 10.0834 2.06142C10.1744 2.0237 10.272 2.00428 10.3705 2.00428C10.469 2.00428 10.5666 2.0237 10.6576 2.06142C10.7486 2.09914 10.8313 2.15443 10.901 2.22412L13.7805 5.10012C13.9206 5.24071 13.9993 5.43112 13.9993 5.62962C13.9993 5.82813 13.9206 6.01852 13.7805 6.15912L13.781 6.16112Z" fill="#524A3E" fill-opacity="0.78"/>
</svg>
